<svg width="11" height="11" viewBox="0 0 11 11" fill="none" xmlns="http://www.w3.org/2000/svg">
<path d="M10.6289 0.738281L8.59766 0.269531C8.38281 0.210938 8.14844 0.328125 8.05078 0.542969L7.11328 2.73047C7.03516 2.92578 7.09375 3.14062 7.25 3.27734L8.44141 4.25391C7.73828 5.73828 6.50781 6.98828 4.98438 7.71094L4.00781 6.51953C3.87109 6.36328 3.65625 6.30469 3.46094 6.38281L1.27344 7.32031C1.05859 7.41797 0.960938 7.65234 1 7.86719L1.46875 9.89844C1.52734 10.1133 1.70312 10.25 1.9375 10.25C6.9375 10.25 11 6.20703 11 1.1875C11 0.972656 10.8438 0.796875 10.6289 0.738281Z" fill="white"/>
</svg>
