<svg width="10" height="8" viewBox="0 0 10 8" fill="none" xmlns="http://www.w3.org/2000/svg">
<path d="M9.80469 2.98047C9.35547 3.33203 8.78906 3.76172 6.79688 5.20703C6.40625 5.5 5.68359 6.14453 5 6.14453C4.29688 6.14453 3.59375 5.5 3.18359 5.20703C1.19141 3.76172 0.625 3.33203 0.175781 2.98047C0.0976562 2.92188 0 2.98047 0 3.07812V7.0625C0 7.58984 0.410156 8 0.9375 8H9.0625C9.57031 8 10 7.58984 10 7.0625V3.07812C10 2.98047 9.88281 2.92188 9.80469 2.98047ZM5 5.5C5.44922 5.51953 6.09375 4.93359 6.42578 4.69922C9.02344 2.82422 9.21875 2.64844 9.80469 2.17969C9.92188 2.10156 10 1.96484 10 1.80859V1.4375C10 0.929688 9.57031 0.5 9.0625 0.5H0.9375C0.410156 0.5 0 0.929688 0 1.4375V1.80859C0 1.96484 0.0585938 2.10156 0.175781 2.17969C0.761719 2.64844 0.957031 2.82422 3.55469 4.69922C3.88672 4.93359 4.53125 5.51953 5 5.5Z" fill="white"/>
</svg>
