<svg width="148" height="30" viewBox="0 0 148 30" fill="none" xmlns="http://www.w3.org/2000/svg">
<g clip-path="url(#clip0)">
<path d="M15.85 1.75005C13.7589 0.577883 11.3971 -0.0255132 9 4.71522e-05H0V29.17H9C11.4047 29.1961 13.774 28.5891 15.87 27.41C17.8808 26.2621 19.5166 24.5568 20.58 22.5C21.7226 20.2676 22.2963 17.7875 22.25 15.28V13.94C22.2928 11.4167 21.7087 8.9221 20.55 6.68005C19.4882 4.62023 17.8568 2.90898 15.85 1.75005ZM16.2 15.46C16.2 18.31 15.54 20.51 14.29 22.04C13.6364 22.8191 12.8092 23.4339 11.8748 23.8351C10.9404 24.2363 9.92495 24.4127 8.91 24.35H6V4.89005H9C10.0135 4.82342 11.0284 4.99596 11.963 5.39374C12.8975 5.79153 13.7255 6.40342 14.38 7.18005C15.58 8.71005 16.2 11 16.2 13.92V15.46Z" fill="white"/>
<path d="M35.59 7.11016C33.7385 7.07661 31.9141 7.55781 30.32 8.50016C28.7628 9.45367 27.521 10.8449 26.75 12.5002C25.883 14.3232 25.4484 16.3217 25.48 18.3402V18.9002C25.4142 20.3355 25.6469 21.7689 26.1633 23.1097C26.6796 24.4505 27.4685 25.6697 28.48 26.6902C29.5115 27.6724 30.7301 28.4371 32.0633 28.9387C33.3964 29.4404 34.8168 29.6687 36.24 29.6102C37.9336 29.6433 39.6137 29.3018 41.16 28.6102C42.5685 27.9849 43.784 26.9939 44.68 25.7402L41.84 22.5502C41.2296 23.3453 40.4363 23.9813 39.5276 24.4044C38.6188 24.8274 37.6214 25.0249 36.62 24.9802C35.2835 25.0191 33.9846 24.5347 33 23.6302C32.0423 22.7357 31.4417 21.524 31.31 20.2202H45.14V17.8602C45.14 14.4335 44.29 11.7835 42.59 9.91016C41.6951 8.96503 40.6058 8.22525 39.3973 7.74185C38.1888 7.25846 36.8899 7.04294 35.59 7.11016ZM39.46 16.2802H31.46C31.5674 15.0536 32.0452 13.8888 32.83 12.9402C33.1831 12.5554 33.6153 12.2517 34.0969 12.0497C34.5785 11.8478 35.0981 11.7524 35.62 11.7702C36.1427 11.7387 36.6662 11.8167 37.1569 11.9992C37.6477 12.1817 38.095 12.4648 38.47 12.8302C39.167 13.6698 39.5238 14.7402 39.47 15.8302L39.46 16.2802Z" fill="white"/>
<path d="M52.1 2.00008C51.3757 2.7477 50.8149 3.63791 50.4533 4.61408C50.0918 5.59025 49.9374 6.631 50 7.67008V11.8301H46.78V16.6801H50V29.1701H55.8V16.6801H58.92V11.8301H55.81V7.77008C55.81 5.77008 56.81 4.77008 58.93 4.71008V8.2897e-05H58C56.9334 -0.0713539 55.8631 0.0685475 54.8506 0.411759C53.8381 0.754971 52.9034 1.29474 52.1 2.00008Z" fill="white"/>
<path d="M81.22 11.83H69.51V0H63.51V29.17H69.51V16.68H81.22V29.17H87.22V0H81.22V11.83Z" fill="white"/>
<path d="M108.58 9.79001C107.625 8.88959 106.499 8.18878 105.27 7.72861C104.041 7.26843 102.732 7.05812 101.42 7.11001C99.5215 7.06901 97.6477 7.5461 96 8.49001C94.451 9.40897 93.2088 10.766 92.43 12.39C91.5776 14.185 91.1532 16.1532 91.19 18.14V18.4C91.0334 21.3845 92.0408 24.3133 94 26.57C96.0133 28.513 98.702 29.5989 101.5 29.5989C104.298 29.5989 106.987 28.513 109 26.57C110.923 24.3614 111.919 21.4953 111.78 18.57V17.09C111.683 14.3377 110.538 11.7263 108.58 9.79001ZM104.74 23.29C104.352 23.7961 103.852 24.2061 103.28 24.4882C102.707 24.7704 102.078 24.9171 101.44 24.9171C100.802 24.9171 100.173 24.7704 99.6003 24.4882C99.0281 24.2061 98.5285 23.7961 98.14 23.29C97.2761 21.8671 96.8776 20.2101 97 18.55C96.8686 16.7647 97.2762 14.981 98.17 13.43C98.5282 12.895 99.0182 12.4613 99.5926 12.1705C100.167 11.8798 100.807 11.7418 101.45 11.77C102.099 11.7446 102.745 11.8845 103.325 12.1766C103.906 12.4687 104.403 12.9034 104.77 13.44C105.638 14.8442 106.05 16.4824 105.95 18.13C105.93 20.5033 105.527 22.2233 104.74 23.29Z" fill="white"/>
<path d="M128 17.1202C126.813 16.6966 125.597 16.3623 124.36 16.1202C123.287 15.9635 122.249 15.6253 121.29 15.1202C121.014 14.9658 120.785 14.7409 120.625 14.4685C120.465 14.1961 120.38 13.8861 120.38 13.5702C120.371 13.2455 120.439 12.9233 120.578 12.6297C120.717 12.3361 120.923 12.0794 121.18 11.8802C121.833 11.4028 122.633 11.1692 123.44 11.2202C123.897 11.1697 124.36 11.2128 124.8 11.3469C125.24 11.481 125.649 11.7033 126 12.0002C126.267 12.271 126.475 12.5934 126.613 12.9476C126.75 13.3018 126.814 13.6804 126.8 14.0602H132.59C132.603 13.0908 132.386 12.1322 131.956 11.263C131.527 10.3939 130.898 9.63892 130.12 9.06019C128.203 7.68574 125.876 7.00185 123.52 7.12019C121.271 6.99486 119.05 7.65992 117.24 9.00019C116.494 9.56214 115.889 10.2905 115.474 11.1273C115.06 11.9641 114.846 12.8862 114.85 13.8202C114.85 17.1069 117.427 19.2935 122.58 20.3802C123.77 20.5843 124.923 20.9651 126 21.5102C126.304 21.6699 126.558 21.9102 126.734 22.2048C126.911 22.4994 127.003 22.8368 127 23.1802C127.004 23.5051 126.928 23.8261 126.78 24.1153C126.632 24.4046 126.416 24.6534 126.15 24.8402C125.402 25.3117 124.522 25.5324 123.64 25.4702C122.628 25.5213 121.629 25.2327 120.8 24.6502C120.442 24.3677 120.154 24.0074 119.956 23.5968C119.759 23.1861 119.658 22.7359 119.66 22.2802H114.17C114.172 23.5965 114.592 24.8782 115.37 25.9402C116.22 27.1065 117.366 28.0247 118.69 28.6002C120.208 29.2826 121.856 29.624 123.52 29.6002C125.849 29.7016 128.149 29.0608 130.09 27.7702C130.882 27.2472 131.529 26.5335 131.973 25.6947C132.417 24.8559 132.643 23.9191 132.63 22.9702C132.63 20.1902 131.087 18.2402 128 17.1202Z" fill="white"/>
<path d="M145.5 24.8102C145.187 24.8466 144.869 24.8193 144.567 24.7299C144.264 24.6406 143.983 24.491 143.74 24.2902C143.387 23.7861 143.224 23.1731 143.28 22.5602V11.7502H147V7.51018H143.3V2.18018H137.51V7.51018H134.35V11.7502H137.51V23.4202C137.59 27.5202 139.66 29.5702 143.72 29.5702C144.906 29.5742 146.086 29.3989 147.22 29.0502V24.6702C146.652 24.769 146.076 24.8158 145.5 24.8102Z" fill="white"/>
</g>
<defs>
<clipPath id="clip0">
<rect width="147.2" height="29.57" fill="white"/>
</clipPath>
</defs>
</svg>
